<?xml version="1.0" standalone="no"?>
<!DOCTYPE svg PUBLIC "-//W3C//DTD SVG 20010904//EN"
 "http://www.w3.org/TR/2001/REC-SVG-20010904/DTD/svg10.dtd">
<svg version="1.0" xmlns="http://www.w3.org/2000/svg"
 width="739.000000pt" height="739.000000pt" viewBox="0 0 739.000000 739.000000"
 preserveAspectRatio="xMidYMid meet">

<g transform="translate(0.000000,739.000000) scale(0.100000,-0.100000)"
fill="#000000" stroke="none">
<path d="M3480 7384 c-938 -69 -1764 -444 -2411 -1096 -592 -595 -955 -1366
-1051 -2228 -18 -169 -16 -594 5 -762 108 -878 469 -1624 1079 -2229 595 -592
1366 -955 2228 -1051 169 -18 594 -16 762 5 878 108 1624 469 2229 1079 592
595 955 1366 1051 2228 18 169 16 594 -5 762 -77 626 -273 1161 -609 1662
-605 901 -1567 1486 -2653 1612 -128 14 -517 26 -625 18z m565 -359 c625 -64
1235 -312 1720 -701 402 -322 679 -671 932 -1178 191 -380 280 -658 344 -1071
26 -168 37 -559 20 -741 -73 -795 -422 -1530 -982 -2069 -119 -114 -281 -249
-384 -319 -73 -50 -61 -39 95 85 261 207 521 499 709 797 74 117 156 262 148
262 -3 0 -24 -34 -47 -75 -202 -367 -551 -752 -925 -1022 -413 -298 -931 -503
-1464 -579 -147 -21 -680 -30 -837 -15 -251 25 -483 70 -674 130 -35 11 -66
19 -68 17 -4 -4 176 -64 283 -95 415 -118 937 -150 1375 -86 138 21 387 79
496 115 48 17 89 28 92 26 2 -3 -54 -23 -125 -46 -348 -112 -651 -160 -1007
-161 -492 0 -913 86 -1346 276 -579 254 -1069 669 -1424 1209 -345 523 -545
1073 -596 1644 -18 189 -8 578 18 747 82 529 257 979 543 1400 204 300 543
644 804 817 40 27 14 3 -97 -83 -319 -253 -640 -643 -832 -1014 -65 -126 -59
-121 15 10 226 401 557 766 952 1048 392 281 890 483 1367 556 297 45 722 51
1025 15 222 -26 484 -88 695 -163 46 -16 86 -28 88 -26 8 7 -263 106 -398 144
-326 94 -550 124 -910 125 -221 0 -291 -4 -425 -22 -182 -26 -339 -60 -504
-108 -63 -19 -116 -32 -119 -30 -5 5 150 55 278 90 156 42 430 88 585 99 137
9 455 5 580 -8z m-1465 -194 c-8 -5 -26 -11 -40 -15 -21 -5 -20 -3 5 9 32 15
60 20 35 6z"/>
<path d="M3516 6860 c-922 -89 -1768 -554 -2302 -1265 -293 -390 -494 -829
-594 -1304 -17 -77 -31 -153 -31 -168 -1 -22 -3 -23 -6 -7 -5 28 32 243 63
369 87 343 207 621 418 970 l18 30 -20 -25 c-41 -49 -173 -279 -236 -411 -157
-332 -253 -659 -303 -1034 -24 -183 -24 -621 0 -795 53 -377 154 -722 300
-1020 72 -145 217 -368 343 -525 96 -118 309 -337 414 -425 44 -37 16 -4 -86
100 -83 85 -188 202 -234 260 -325 409 -553 905 -650 1413 -28 148 -24 168 6
27 124 -595 423 -1161 843 -1593 450 -463 989 -770 1601 -910 274 -64 353 -72
665 -72 260 0 292 2 440 28 352 61 653 158 946 308 322 164 552 332 825 604
214 213 343 378 494 631 162 272 275 542 355 851 33 126 74 336 76 392 1 17 3
20 6 8 12 -46 -51 -376 -114 -592 -61 -213 -188 -507 -303 -702 -17 -29 -28
-53 -26 -53 11 0 114 185 191 342 178 367 282 755 316 1173 14 181 7 510 -16
675 -65 476 -216 897 -449 1250 -144 218 -364 476 -532 625 -73 64 -70 60 36
-50 436 -452 719 -984 845 -1591 14 -65 24 -128 24 -139 l-1 -20 -5 20 c-36
159 -81 325 -116 430 -336 996 -1135 1773 -2132 2071 -185 55 -280 77 -460
104 -159 24 -466 34 -609 20z m274 -2230 c182 -23 366 -96 506 -203 71 -54 72
-54 120 -46 116 19 279 5 381 -32 75 -28 156 -108 174 -171 35 -131 -38 -304
-205 -484 -66 -72 -66 -72 -66 -130 0 -33 -9 -99 -19 -149 -85 -412 -416 -733
-828 -805 -79 -14 -251 -14 -336 0 -135 21 -283 81 -407 165 -51 34 -58 36
-108 30 -83 -10 -241 -8 -311 5 -177 32 -275 129 -274 270 1 110 59 230 183
376 l64 77 -2 76 c-5 138 37 318 106 456 160 322 468 533 822 565 47 4 92 8
100 9 9 0 54 -4 100 -9z m3057 -457 c-3 -10 -5 -4 -5 12 0 17 2 24 5 18 2 -7
2 -21 0 -30z m10 -60 c-3 -10 -5 -4 -5 12 0 17 2 24 5 18 2 -7 2 -21 0 -30z
m-6280 -70 c-3 -10 -5 -2 -5 17 0 19 2 27 5 18 2 -10 2 -26 0 -35z m6290 -10
c-3 -10 -5 -4 -5 12 0 17 2 24 5 18 2 -7 2 -21 0 -30z m-6300 -75 c-2 -13 -4
-5 -4 17 -1 22 1 32 4 23 2 -10 2 -28 0 -40z m6310 -610 c-2 -13 -4 -3 -4 22
0 25 2 35 4 23 2 -13 2 -33 0 -45z m-6310 5 c-3 -10 -5 -2 -5 17 0 19 2 27 5
18 2 -10 2 -26 0 -35z m10 -90 c-3 -10 -5 -4 -5 12 0 17 2 24 5 18 2 -7 2 -21
0 -30z m10 -80 c-3 -10 -5 -4 -5 12 0 17 2 24 5 18 2 -7 2 -21 0 -30z"/>
<path d="M3563 4530 c-253 -35 -502 -188 -640 -390 -93 -137 -163 -341 -163
-476 l0 -43 115 92 c128 103 337 237 501 323 105 55 109 58 116 96 19 102 123
170 229 147 27 -6 59 -19 71 -29 21 -17 25 -17 104 10 45 16 139 43 209 61
l127 32 -24 19 c-47 38 -225 117 -308 137 -98 24 -248 34 -337 21z"/>
<path d="M4460 4282 c0 -5 18 -33 41 -63 85 -113 136 -224 173 -373 l22 -89
56 69 c128 160 161 278 104 367 -24 35 -106 74 -186 87 -78 12 -210 13 -210 2z"/>
<path d="M4195 4245 c-55 -13 -150 -39 -211 -59 l-111 -36 5 -49 c12 -132
-122 -240 -250 -202 -22 7 -60 30 -84 53 l-43 40 -98 -53 c-283 -152 -633
-405 -633 -458 0 -43 45 -184 85 -266 123 -256 350 -435 633 -501 91 -22 295
-22 388 -1 222 49 441 196 565 379 239 351 214 795 -64 1131 -45 55 -44 54
-182 22z"/>
<path d="M2625 3338 c-198 -267 -135 -424 181 -445 50 -3 103 -3 118 1 l26 6
-65 83 c-74 93 -155 249 -181 350 -10 37 -21 67 -25 67 -4 0 -28 -28 -54 -62z"/>
<path d="M2044 6449 c-677 -396 -1166 -973 -1433 -1691 -124 -331 -185 -678
-179 -1007 1 -59 3 -79 5 -46 45 943 449 1780 1153 2386 169 145 326 263 490
364 95 59 118 75 109 75 -3 0 -68 -37 -145 -81z"/>
<path d="M736 5145 c-9 -26 -7 -32 5 -12 6 10 9 21 6 23 -2 3 -7 -2 -11 -11z"/>
<path d="M6997 3540 c-34 -566 -233 -1154 -548 -1620 -121 -179 -240 -322
-403 -486 -224 -223 -461 -416 -672 -545 -46 -28 -84 -53 -84 -56 0 -6 58 26
164 90 376 226 713 539 974 904 281 393 485 874 546 1283 20 141 38 388 34
480 -3 69 -4 64 -11 -50z"/>
<path d="M6396 1915 c-9 -14 -23 -37 -32 -52 l-16 -28 20 24 c24 29 55 81 49
81 -3 0 -12 -11 -21 -25z"/>
<path d="M1665 1180 c10 -11 20 -20 23 -20 3 0 -3 9 -13 20 -10 11 -20 20 -23
20 -3 0 3 -9 13 -20z"/>
</g>
</svg>
